HIERARCHY
ROOT Hips
{
	OFFSET 0.000000 121.760803 0.000000
	CHANNELS 6 Xposition Yposition Zposition Xrotation Yrotation Zrotation 
	JOINT Spine
	{
		OFFSET 0.072000 7.257294 -0.789700
		CHANNELS 3 Xrotation Yrotation Zrotation
		JOINT Spine1
		{
			OFFSET 0.000000 12.508769 -0.658067
			CHANNELS 3 Xrotation Yrotation Zrotation
			JOINT Spine1_split
			{
				OFFSET 0.000000 12.508769 -0.658067
				CHANNELS 3 Xrotation Yrotation Zrotation
				JOINT Spine2
				{
					OFFSET 0.000000 12.508769 -0.658067
					CHANNELS 3 Xrotation Yrotation Zrotation
					JOINT Neck
					{
						OFFSET 0.000000 14.033295 7.520400
						CHANNELS 3 Xrotation Yrotation Zrotation
						JOINT Head
						{
							OFFSET 0.000000 8.198502 5.703100
							CHANNELS 3 Xrotation Yrotation Zrotation
							JOINT HeadTop_End
							{
								OFFSET 0.000000 17.760803 13.332701
								CHANNELS 3 Xrotation Yrotation Zrotation
								End Site
								{
									OFFSET 0.000000 0.000000 0.000000
								}
							}
						}
					}
					JOINT LeftShoulder
					{
						OFFSET 6.292450 5.785301 -0.669000
						CHANNELS 3 Xrotation Yrotation Zrotation
						JOINT LeftShoulder_split
						{
							OFFSET 6.292450 5.785301 -0.669000
							CHANNELS 3 Xrotation Yrotation Zrotation
							JOINT LeftArm
							{
								OFFSET 13.907140 -6.093903 1.965100
								CHANNELS 3 Xrotation Yrotation Zrotation
								JOINT LeftForeArm
								{
									OFFSET 34.140198 0.000000 0.000000
									CHANNELS 3 Xrotation Yrotation Zrotation
									JOINT LeftHand
									{
										OFFSET 40.960209 0.000000 0.000000
										CHANNELS 3 Xrotation Yrotation Zrotation
										JOINT LeftHandThumb1
										{
											OFFSET 10.006996 -7.170425 9.573125
											CHANNELS 3 Xrotation Yrotation Zrotation
											JOINT LeftHandThumb2
											{
												OFFSET 1.835007 -1.059448 1.059443
												CHANNELS 3 Xrotation Yrotation Zrotation
												JOINT LeftHandThumb3
												{
													OFFSET 2.112267 -1.219513 1.219518
													CHANNELS 3 Xrotation Yrotation Zrotation
													JOINT LeftHandThumb4
													{
														OFFSET 4.843811 -2.796570 2.796576
														CHANNELS 3 Xrotation Yrotation Zrotation
														End Site
														{
															OFFSET 0.000000 0.000000 0.000000
														}
													}
												}
											}
										}
										JOINT LeftHandIndex1
										{
											OFFSET 18.389847 -0.922348 4.596882
											CHANNELS 3 Xrotation Yrotation Zrotation
											JOINT LeftHandIndex2
											{
												OFFSET 4.711273 0.000000 0.000000
												CHANNELS 3 Xrotation Yrotation Zrotation
												JOINT LeftHandIndex3
												{
													OFFSET 2.886131 0.000000 0.000000
													CHANNELS 3 Xrotation Yrotation Zrotation
													JOINT LeftHandIndex4
													{
														OFFSET 6.145912 0.000000 0.000000
														CHANNELS 3 Xrotation Yrotation Zrotation
														End Site
														{
															OFFSET 0.000000 0.000000 0.000000
														}
													}
												}
											}
										}
										JOINT LeftHandMiddle1
										{
											OFFSET 18.013008 0.000000 0.000000
											CHANNELS 3 Xrotation Yrotation Zrotation
											JOINT LeftHandMiddle2
											{
												OFFSET 4.946693 0.000000 0.000000
												CHANNELS 3 Xrotation Yrotation Zrotation
												JOINT LeftHandMiddle3
												{
													OFFSET 3.342232 0.000000 0.000000
													CHANNELS 3 Xrotation Yrotation Zrotation
													JOINT LeftHandMiddle4
													{
														OFFSET 4.461754 0.000000 0.000000
														CHANNELS 3 Xrotation Yrotation Zrotation
														End Site
														{
															OFFSET 0.000000 0.000000 0.000000
														}
													}
												}
											}
										}
										JOINT LeftHandRing1
										{
											OFFSET 15.849892 -0.102921 -4.126150
											CHANNELS 3 Xrotation Yrotation Zrotation
											JOINT LeftHandRing2
											{
												OFFSET 3.527054 0.000000 0.000000
												CHANNELS 3 Xrotation Yrotation Zrotation
												JOINT LeftHandRing3
												{
													OFFSET 2.961098 0.000000 0.000000
													CHANNELS 3 Xrotation Yrotation Zrotation
													JOINT LeftHandRing4
													{
														OFFSET 4.927200 0.000000 0.000000
														CHANNELS 3 Xrotation Yrotation Zrotation
														End Site
														{
															OFFSET 0.000000 0.000000 0.000000
														}
													}
												}
											}
										}
										JOINT LeftHandPinky1
										{
											OFFSET 12.791824 -0.832031 -6.799156
											CHANNELS 3 Xrotation Yrotation Zrotation
											JOINT LeftHandPinky2
											{
												OFFSET 3.327133 0.000000 0.000000
												CHANNELS 3 Xrotation Yrotation Zrotation
												JOINT LeftHandPinky3
												{
													OFFSET 3.014900 0.000000 0.000000
													CHANNELS 3 Xrotation Yrotation Zrotation
													JOINT LeftHandPinky4
													{
														OFFSET 5.847786 0.000000 0.000000
														CHANNELS 3 Xrotation Yrotation Zrotation
														End Site
														{
															OFFSET 0.000000 0.000000 0.000000
														}
													}
												}
											}
										}
									}
								}
							}
						}
					}
					JOINT RightShoulder
					{
						OFFSET -6.292450 5.785301 -0.669000
						CHANNELS 3 Xrotation Yrotation Zrotation
						JOINT RightShoulder_split
						{
							OFFSET -6.292450 5.785301 -0.669000
							CHANNELS 3 Xrotation Yrotation Zrotation
							JOINT RightArm
							{
								OFFSET -13.907140 -6.093903 1.965100
								CHANNELS 3 Xrotation Yrotation Zrotation
								JOINT RightForeArm
								{
									OFFSET -34.140198 0.000000 0.000000
									CHANNELS 3 Xrotation Yrotation Zrotation
									JOINT RightHand
									{
										OFFSET -40.960209 0.000000 0.000000
										CHANNELS 3 Xrotation Yrotation Zrotation
										JOINT RightHandThumb1
										{
											OFFSET -10.007050 -7.170456 9.573117
											CHANNELS 3 Xrotation Yrotation Zrotation
											JOINT RightHandThumb2
											{
												OFFSET -1.835007 -1.059448 1.059443
												CHANNELS 3 Xrotation Yrotation Zrotation
												JOINT RightHandThumb3
												{
													OFFSET -2.112267 -1.219513 1.219518
													CHANNELS 3 Xrotation Yrotation Zrotation
													JOINT RightHandThumb4
													{
														OFFSET -4.843834 -2.796585 2.796590
														CHANNELS 3 Xrotation Yrotation Zrotation
														End Site
														{
															OFFSET 0.000000 0.000000 0.000000
														}
													}
												}
											}
										}
										JOINT RightHandIndex1
										{
											OFFSET -18.389870 -0.922424 4.596786
											CHANNELS 3 Xrotation Yrotation Zrotation
											JOINT RightHandIndex2
											{
												OFFSET -4.711273 0.000000 0.000000
												CHANNELS 3 Xrotation Yrotation Zrotation
												JOINT RightHandIndex3
												{
													OFFSET -2.886131 0.000000 0.000000
													CHANNELS 3 Xrotation Yrotation Zrotation
													JOINT RightHandIndex4
													{
														OFFSET -6.145920 0.000000 0.000000
														CHANNELS 3 Xrotation Yrotation Zrotation
														End Site
														{
															OFFSET 0.000000 0.000000 0.000000
														}
													}
												}
											}
										}
										JOINT RightHandMiddle1
										{
											OFFSET -18.013008 0.000000 0.000000
											CHANNELS 3 Xrotation Yrotation Zrotation
											JOINT RightHandMiddle2
											{
												OFFSET -4.946693 0.000000 0.000000
												CHANNELS 3 Xrotation Yrotation Zrotation
												JOINT RightHandMiddle3
												{
													OFFSET -3.342232 0.000000 0.000000
													CHANNELS 3 Xrotation Yrotation Zrotation
													JOINT RightHandMiddle4
													{
														OFFSET -4.461754 0.000000 0.000000
														CHANNELS 3 Xrotation Yrotation Zrotation
														End Site
														{
															OFFSET 0.000000 0.000000 0.000000
														}
													}
												}
											}
										}
										JOINT RightHandRing1
										{
											OFFSET -15.849876 -0.102936 -4.126237
											CHANNELS 3 Xrotation Yrotation Zrotation
											JOINT RightHandRing2
											{
												OFFSET -3.527054 0.000000 0.000000
												CHANNELS 3 Xrotation Yrotation Zrotation
												JOINT RightHandRing3
												{
													OFFSET -2.961098 0.000000 0.000000
													CHANNELS 3 Xrotation Yrotation Zrotation
													JOINT RightHandRing4
													{
														OFFSET -4.927200 0.000000 0.000000
														CHANNELS 3 Xrotation Yrotation Zrotation
														End Site
														{
															OFFSET 0.000000 0.000000 0.000000
														}
													}
												}
											}
										}
										JOINT RightHandPinky1
										{
											OFFSET -12.791786 -0.832077 -6.799222
											CHANNELS 3 Xrotation Yrotation Zrotation
											JOINT RightHandPinky2
											{
												OFFSET -3.327133 0.000000 0.000000
												CHANNELS 3 Xrotation Yrotation Zrotation
												JOINT RightHandPinky3
												{
													OFFSET -3.014900 0.000000 0.000000
													CHANNELS 3 Xrotation Yrotation Zrotation
													JOINT RightHandPinky4
													{
														OFFSET -5.847786 0.000000 0.000000
														CHANNELS 3 Xrotation Yrotation Zrotation
														End Site
														{
															OFFSET 0.000000 0.000000 0.000000
														}
													}
												}
											}
										}
									}
								}
							}
						}
					}
				}
			}
		}
	}
	JOINT LeftUpLeg
	{
		OFFSET 13.026900 -6.336304 -1.092800
		CHANNELS 3 Xrotation Yrotation Zrotation
		JOINT LeftLeg
		{
			OFFSET 0.524474 -46.096886 9.782700
			CHANNELS 3 Xrotation Yrotation Zrotation
			JOINT LeftFoot
			{
				OFFSET -0.524474 -53.427422 -12.948200
				CHANNELS 3 Xrotation Yrotation Zrotation
				JOINT LeftToeBase
				{
					OFFSET 0.192200 -14.009700 16.364100
					CHANNELS 3 Xrotation Yrotation Zrotation
					JOINT LeftToe_End
					{
						OFFSET -1.784700 -0.561700 9.474800
						CHANNELS 3 Xrotation Yrotation Zrotation
						End Site
						{
							OFFSET 0.000000 0.000000 0.000000
						}
					}
				}
			}
		}
	}
	JOINT RightUpLeg
	{
		OFFSET -12.883000 -6.336304 -1.092800
		CHANNELS 3 Xrotation Yrotation Zrotation
		JOINT RightLeg
		{
			OFFSET -0.524587 -46.096825 9.782800
			CHANNELS 3 Xrotation Yrotation Zrotation
			JOINT RightFoot
			{
				OFFSET 0.524587 -53.427383 -12.948300
				CHANNELS 3 Xrotation Yrotation Zrotation
				JOINT RightToeBase
				{
					OFFSET -0.192200 -14.009700 16.364100
					CHANNELS 3 Xrotation Yrotation Zrotation
					JOINT RightToe_End
					{
						OFFSET 1.784700 -0.561700 9.474800
						CHANNELS 3 Xrotation Yrotation Zrotation
						End Site
						{
							OFFSET 0.000000 0.000000 0.000000
						}
					}
				}
			}
		}
	}
}
MOTION
Frames: 4
Frame Time: 0.016667
-0.989204 15.756058 1.926384 -86.970834 -3.804374 -1.701336 0.015736 2.263388 -0.729882 -2.894322 0.722157 -0.032029 0.000000 0.000000 0.000000 -2.892155 0.750137 -0.008815 4.260101 0.456928 0.133952 4.823574 3.550529 10.429253 0.000000 -0.000001 -0.000001 1.575209 -15.462655 -0.386114 0.000000 0.000000 0.000000 21.370837 -1.052514 -73.139148 0.000015 -137.558453 0.000012 -17.216072 17.260918 -40.864899 -7.747757 -16.408829 12.046776 7.558175 31.509541 -3.040781 -10.327325 16.515341 14.878085 0.000001 -0.000000 0.000001 0.259314 3.223722 10.217944 0.789881 2.939699 -30.073692 0.009376 -0.331725 3.238831 -0.000000 0.000000 -0.000000 -0.267157 2.447524 18.123142 0.825494 3.000284 -30.761068 0.002423 -0.168726 1.646713 -0.000000 -0.000000 0.000000 -0.192990 1.876669 21.842784 0.923692 3.159208 -32.588724 0.021155 -0.497950 4.865113 0.000001 0.000000 0.000000 -3.484233 5.349103 23.881625 0.640531 2.665504 -27.019998 0.034578 0.636269 -6.221374 0.000000 0.000000 -0.000000 0.537284 6.692239 0.071574 0.000000 0.000000 0.000000 17.297881 6.543546 66.743693 0.000010 132.968074 -0.000001 -16.839271 -11.628809 48.900698 -19.372327 9.812738 -17.628158 16.805757 -33.149124 6.482057 3.930031 -4.675013 -18.270503 0.000003 -0.000000 -0.000000 -0.578704 -1.290234 19.415301 -0.000001 0.000000 0.000025 0.000375 -0.059106 0.725570 -0.000000 -0.000000 -0.000000 0.900191 -7.884228 9.062695 0.294486 -1.631363 20.463679 0.051639 -0.692362 8.531046 0.000001 0.000000 -0.000001 0.740063 -10.091160 4.911394 1.354389 -3.285243 44.799969 0.134870 1.113827 -13.807948 0.000000 0.000001 0.000000 0.507049 -5.672360 8.465990 1.111095 -3.020973 40.379050 0.158026 1.204125 -14.952703 -0.000001 0.000000 0.000001 -23.051470 14.777302 -6.198535 21.282186 -6.467218 -9.101316 2.282041 9.541989 7.352487 -0.274301 -0.000003 0.000002 -0.000000 0.000001 -0.000001 -8.139324 -10.566417 0.114581 8.928364 -7.825476 6.994817 11.113092 -5.263241 26.165936 -2.161805 -0.000006 -0.000005 -0.000001 0.000000 -0.000001 
-0.990837 15.758598 1.935295 -86.976838 -3.805568 -1.705602 0.020253 2.253853 -0.718664 -2.899782 0.719093 -0.031225 0.000000 0.000000 0.000000 -2.897572 0.747077 -0.008095 4.272381 0.440566 0.143374 4.853065 3.381549 10.433352 -0.000000 -0.000000 0.000000 1.572100 -15.451425 -0.406930 0.000000 0.000000 0.000000 21.322435 -0.990330 -73.108385 -0.000001 -137.648898 -0.000009 -16.964902 17.158774 -40.725054 -7.677275 -16.481622 12.448418 7.558175 31.509548 -3.040780 -10.327322 16.515341 14.878085 0.000001 -0.000001 -0.000000 0.216532 3.322621 9.268486 0.755092 2.878856 -29.388207 0.020821 -0.494051 4.826923 0.000001 -0.000000 0.000000 -0.267949 2.540368 17.341944 0.825493 3.000285 -30.761072 0.009838 -0.339740 3.317175 -0.000000 0.000000 -0.000001 -0.202646 1.974539 21.008607 0.883419 3.095399 -31.850511 0.034699 -0.637372 6.232215 0.000000 0.000000 -0.000000 -3.543194 5.418526 23.634333 0.608911 2.602635 -26.331954 0.034579 0.636269 -6.221377 0.000000 -0.000000 0.000001 0.542301 6.731887 0.071287 0.000000 0.000000 0.000000 17.280963 6.510335 66.772804 -0.000013 132.980368 0.000018 -16.827515 -11.646458 48.903000 -19.372326 9.812737 -17.628158 16.805754 -33.149124 6.482053 3.930030 -4.675012 -18.270505 -0.000001 0.000002 0.000002 -0.578704 -1.290233 19.415303 -0.000004 0.000001 0.000024 0.000375 -0.059105 0.725570 0.000001 0.000000 0.000000 0.900192 -7.884228 9.062696 0.294486 -1.631366 20.463677 0.051640 -0.692362 8.531041 0.000000 0.000000 0.000000 0.740061 -10.091158 4.911394 1.354390 -3.285246 44.799966 0.134871 1.113826 -13.807946 -0.000000 -0.000000 0.000001 0.507049 -5.672360 8.465990 1.111097 -3.020973 40.379054 0.158025 1.204125 -14.952705 0.000000 0.000001 0.000001 -23.061495 14.777133 -6.188546 21.310544 -6.467077 -9.104819 2.269781 9.520473 7.355559 -0.272493 0.000001 -0.000000 0.000001 -0.000000 -0.000000 -8.134592 -10.566665 0.117642 8.936764 -7.826149 6.997399 11.069461 -5.259473 26.179772 -2.138492 -0.000009 0.000000 -0.000002 0.000001 -0.000002 
-0.991693 15.761200 1.944382 -86.982869 -3.805270 -1.710124 0.027312 2.244633 -0.706100 -2.905655 0.716116 -0.029207 0.000000 0.000000 0.000000 -2.903450 0.744094 -0.006158 4.284331 0.424950 0.153657 4.886330 3.221611 10.436324 0.000001 -0.000000 -0.000000 1.568766 -15.437780 -0.427669 0.000000 0.000000 0.000000 21.271659 -0.938644 -73.079992 0.000019 -137.717733 0.000004 -16.836742 17.157152 -40.835690 -7.606061 -16.554688 12.852140 7.558176 31.509544 -3.040783 -10.327327 16.515343 14.878090 -0.000001 -0.000001 -0.000000 0.175406 3.423363 8.317332 0.720865 2.817304 -28.699475 0.036851 -0.656785 6.422827 0.000000 -0.000000 0.000000 -0.267364 2.633422 16.559273 0.825493 3.000284 -30.761089 0.022308 -0.511296 4.995836 -0.000000 -0.000000 0.000000 -0.210766 2.072768 20.172865 0.843783 3.030761 -31.108800 0.051659 -0.777110 7.606062 0.000000 0.000000 -0.000001 -3.600518 5.485847 23.389139 0.577902 2.539082 -25.640626 0.034579 0.636268 -6.221379 0.000000 0.000000 0.000000 0.546434 6.771665 0.070982 0.000000 0.000000 0.000000 17.268871 6.484044 66.804250 0.000027 132.995996 -0.000021 -16.820418 -11.675022 48.886082 -19.372327 9.812739 -17.628158 16.805754 -33.149124 6.482054 3.930031 -4.675009 -18.270498 0.000000 -0.000000 -0.000001 -0.578705 -1.290233 19.415301 -0.000003 -0.000000 0.000025 0.000376 -0.059106 0.725570 0.000001 -0.000000 -0.000000 0.900193 -7.884228 9.062696 0.294487 -1.631364 20.463675 0.051639 -0.692361 8.531044 -0.000000 0.000002 -0.000004 0.740062 -10.091159 4.911394 1.354388 -3.285246 44.799972 0.134871 1.113829 -13.807944 0.000000 0.000001 0.000000 0.507049 -5.672359 8.465990 1.111095 -3.020972 40.379054 0.158027 1.204123 -14.952701 -0.000000 -0.000000 -0.000002 -23.071088 14.776945 -6.179036 21.338730 -6.466549 -9.108402 2.257565 9.497877 7.359111 -0.270403 0.000000 0.000009 -0.000000 -0.000001 0.000000 -8.129585 -10.567276 0.120003 8.945167 -7.827793 7.000576 11.025003 -5.255781 26.194817 -2.114006 -0.000006 -0.000002 -0.000001 0.000000 -0.000003 
-0.991842 15.763657 1.953285 -86.988627 -3.803411 -1.714730 0.035840 2.236682 -0.693930 -2.910612 0.713544 -0.026432 0.000000 0.000000 0.000000 -2.908353 0.741506 -0.003458 4.294633 0.409458 0.165082 4.917926 3.065241 10.438746 0.000000 0.000000 0.000000 1.565677 -15.422393 -0.445050 0.000000 0.000000 0.000000 21.221005 -0.901428 -73.058285 0.000010 -137.753618 0.000015 -16.852068 17.263879 -41.211333 -7.535803 -16.626289 13.248377 7.558174 31.509541 -3.040777 -10.327323 16.515343 14.878080 -0.000003 0.000001 0.000001 0.136835 3.523653 7.385385 0.688012 2.756516 -28.023757 0.056978 -0.815961 7.988788 -0.000001 -0.000000 0.000000 -0.265444 2.724612 15.792272 0.825495 3.000281 -30.761079 0.039418 -0.679196 6.642986 0.000000 -0.000000 -0.000001 -0.217211 2.169163 19.353920 0.805715 2.966850 -30.381119 0.071551 -0.913783 8.954121 0.000001 -0.000001 -0.000001 -3.655687 5.551051 23.150142 0.548224 2.476365 -24.962395 0.034579 0.636269 -6.221376 0.000000 -0.000000 -0.000001 0.549129 6.804088 0.070729 0.000000 0.000000 0.000000 17.259745 6.469270 66.833094 0.000018 133.013262 -0.000031 -16.816561 -11.710430 48.858833 -19.372327 9.812740 -17.628158 16.805757 -33.149124 6.482054 3.930032 -4.675010 -18.270498 0.000002 -0.000000 0.000000 -0.578703 -1.290233 19.415299 -0.000003 0.000000 0.000025 0.000376 -0.059106 0.725570 0.000001 -0.000001 0.000001 0.900193 -7.884228 9.062695 0.294486 -1.631365 20.463679 0.051638 -0.692360 8.531045 -0.000000 -0.000000 -0.000000 0.740064 -10.091161 4.911395 1.354389 -3.285244 44.799972 0.134872 1.113827 -13.807950 -0.000000 0.000001 -0.000002 0.507049 -5.672360 8.465990 1.111096 -3.020970 40.379054 0.158027 1.204126 -14.952701 -0.000000 0.000000 -0.000001 -23.079969 14.776769 -6.170245 21.365650 -6.465673 -9.112013 2.246366 9.474329 7.363259 -0.268047 0.000006 -0.000007 -0.000000 -0.000001 0.000000 -8.124648 -10.568117 0.121782 8.953175 -7.829971 7.004076 10.980091 -5.252680 26.211097 -2.088448 0.000002 -0.000008 -0.000000 0.000001 -0.000004 
